<svg id="Layer_1" data-name="Layer 1" xmlns="http://www.w3.org/2000/svg" viewBox="0 0 1366 366"><defs><style>.cls-1{fill:#4d4d4d;}.cls-2,.cls-6{fill:#fff;}.cls-3{fill:#999;}.cls-4{opacity:0.19;}.cls-5{opacity:0.08;}.cls-6{stroke:#000;stroke-miterlimit:10;opacity:0.04;}.cls-6,.cls-7{isolation:isolate;}.cls-7{font-size:104.92px;font-family:Ravie;}.cls-7,.cls-8{fill:#f15a24;}.cls-9{fill:none;}</style></defs><rect class="cls-1" width="1366" height="366"/><rect class="cls-2" x="925" y="227.51" width="98.5" height="85.5" transform="matrix(0.14, -0.99, 0.99, 0.14, 569.88, 1196.92)"/><rect class="cls-3" x="935.49" y="243.91" width="40.1" height="30.7" transform="matrix(0.14, -0.99, 0.99, 0.14, 564.7, 1168.94)"/><rect class="cls-3" x="975.2" y="249.51" width="40.1" height="30.7" transform="matrix(0.14, -0.99, 0.99, 0.14, 593.28, 1213.07)"/><rect x="967.69" y="227.42" width="12.6" height="7.6" transform="matrix(0.14, -0.99, 0.99, 0.14, 608.32, 1163.1)"/><rect x="979.59" y="229.12" width="12.6" height="7.6" transform="matrix(0.14, -0.99, 0.99, 0.14, 616.86, 1176.35)"/><rect x="973.02" y="256.68" width="4.9" height="9.8" transform="matrix(0.14, -0.99, 0.99, 0.14, 579.53, 1190.66)"/><g class="cls-4"><rect class="cls-2" x="788.88" y="221.49" width="84.5" height="98.3" transform="translate(-3.24 10.17) rotate(-0.7)"/><rect class="cls-3" x="795.98" y="242.59" width="30.4" height="40" transform="translate(-3.15 9.93) rotate(-0.7)"/><rect class="cls-3" x="835.68" y="242.09" width="30.4" height="40" transform="translate(-3.14 10.41) rotate(-0.7)"/><rect x="821.18" y="225.89" width="7.5" height="12.6" transform="translate(-2.77 10.09) rotate(-0.7)"/><rect x="833.08" y="225.69" width="7.5" height="12.6" transform="translate(-2.77 10.24) rotate(-0.7)"/><rect x="826.18" y="259.48" width="9.7" height="4.9" transform="translate(-3.08 9.99) rotate(-0.69)"/></g><g class="cls-5"><polygon class="cls-2" points="771.3 315.5 716.7 342.4 690.3 267.7 744.9 240.8 771.3 315.5"/><polygon class="cls-3" points="730.9 302 711.3 311.6 700.6 281.2 720.2 271.6 730.9 302"/><polygon class="cls-3" points="756.6 289.4 736.9 299 726.2 268.6 745.8 259 756.6 289.4"/><polygon points="720.8 267.7 716 270.1 712.6 260.5 717.5 258.1 720.8 267.7"/><polygon points="728.5 263.9 723.7 266.3 720.3 256.7 725.1 254.4 728.5 263.9"/><polygon points="726 288.4 724.7 284.7 730.9 281.6 732.2 285.3 726 288.4"/></g><rect class="cls-6" x="616.5" y="277.5" width="55" height="69"/><text class="cls-7" transform="translate(110.47 167.44) scale(0.82 1)">Grab the Nuts</text><rect class="cls-8" x="1287" y="152.9" width="32.8" height="36.1"/><rect x="1293.9" y="155.8" width="22.4" height="24.7"/><rect class="cls-9" x="1305.4" y="162.1" width="22" height="0.5"/><rect class="cls-8" x="1296.6" y="141" width="33.4" height="36.7"/><rect class="cls-8" x="1107.4" y="284.7" width="42.7" height="47.3"/><rect x="1116.4" y="288.4" width="29.2" height="32.4"/><rect class="cls-9" x="1131.3" y="296.8" width="28.7" height="0.6"/><rect class="cls-8" x="1119.9" y="269" width="43.5" height="48.2"/><rect class="cls-8" x="1144.85" y="148.62" width="35.2" height="32.5" transform="translate(-1.93 14.21) rotate(-0.7)"/><rect x="1153.13" y="155.5" width="24.1" height="22.3" transform="translate(-1.95 14.24) rotate(-0.7)"/><rect class="cls-9" x="1170.67" y="166.8" width="0.5" height="21.8" transform="translate(-2.08 14.32) rotate(-0.7)"/><rect class="cls-8" x="1155.9" y="158.08" width="35.9" height="33.1" transform="translate(-2.05 14.35) rotate(-0.7)"/><rect class="cls-8" x="1245.24" y="266.16" width="25.2" height="28.4" transform="matrix(0.76, -0.65, 0.65, 0.76, 121.34, 887.91)"/><rect x="1248.72" y="268.06" width="17.3" height="19.4" transform="matrix(0.76, -0.65, 0.65, 0.76, 122.91, 886.97)"/><rect class="cls-9" x="1213.1" y="172.4" width="28.7" height="0.6"/><rect class="cls-8" x="1244.81" y="253.96" width="25.7" height="28.9" transform="matrix(0.76, -0.65, 0.65, 0.76, 129.08, 884.9)"/><rect class="cls-8" x="546.45" y="329.09" width="9.7" height="8.4"/><rect x="548.76" y="330.87" width="6.6" height="5.8"/><rect class="cls-9" x="553.5" y="333.8" width="0.1" height="5.6"/><rect class="cls-8" x="549.41" y="331.52" width="9.9" height="8.6"/><rect class="cls-8" x="508.04" y="283.01" width="12.7" height="10.9"/><rect x="511.02" y="285.29" width="8.7" height="7.5"/><rect class="cls-9" x="517.3" y="289.1" width="0.2" height="7.4"/><rect class="cls-8" x="511.94" y="286.24" width="13" height="11.2"/><polygon class="cls-8" points="548.5 292.6 557.2 292.5 557.3 301.6 548.6 301.7 548.5 292.6"/><polygon points="549.4 294.8 555.4 294.7 555.5 300.9 549.5 301 549.4 294.8"/><polygon class="cls-9" points="552.4 299.2 546.5 299.3 546.5 299.4 552.4 299.3 552.4 299.2"/><polygon class="cls-8" points="545.8 295.5 554.7 295.4 554.8 304.6 545.9 304.7 545.8 295.5"/><polygon class="cls-8" points="521.2 326.4 516.8 321.5 522.6 316.8 527 321.7 521.2 326.4"/><polygon points="522.1 324.8 519.1 321.4 523.1 318.2 526.1 321.5 522.1 324.8"/><rect class="cls-9" x="550.7" y="310.1" width="0.2" height="7.4"/><polygon class="cls-8" points="524.4 326.5 519.9 321.5 525.8 316.6 530.3 321.6 524.4 326.5"/><polygon class="cls-8" points="449 292.7 437.7 302.9 426.4 290.5 437.7 280.3 449 292.7"/><polygon points="445.2 290.8 437.4 297.8 429.7 289.3 437.4 282.3 445.2 290.8"/><polygon class="cls-9" points="435.8 288.1 443.4 281.3 443.2 281.1 435.6 287.9 435.8 288.1"/><polygon class="cls-8" points="449 285.6 437.5 296 426 283.4 437.5 273 449 285.6"/><polygon class="cls-8" points="84.1 285.7 69.4 299 54.6 282.7 69.3 269.4 84.1 285.7"/><polygon points="79.1 283.3 69 292.3 58.9 281.2 69 272.1 79.1 283.3"/><polygon class="cls-9" points="66.8 279.7 76.7 270.7 76.5 270.5 66.6 279.4 66.8 279.7"/><polygon class="cls-8" points="84.1 276.5 69.1 290 54 273.4 69 259.9 84.1 276.5"/><polygon class="cls-8" points="386.3 344.5 376 333.5 388 322.3 398.3 333.4 386.3 344.5"/><polygon points="388.1 340.7 381 333.1 389.3 325.5 396.3 333.1 388.1 340.7"/><polygon class="cls-9" points="390.6 331.5 397.5 338.9 397.6 338.8 390.7 331.4 390.6 331.5"/><polygon class="cls-8" points="393.3 344.5 382.8 333.2 395 321.9 405.5 333.2 393.3 344.5"/><rect class="cls-8" x="330.34" y="264.75" width="11.7" height="13.2" transform="translate(24.97 571.02) rotate(-82.83)"/><rect x="331.18" y="266.1" width="8" height="9" transform="translate(24.84 569.35) rotate(-82.83)"/><polygon class="cls-9" points="287.2 248.4 297.1 239.5 296.9 239.3 287 248.2 287.2 248.4"/><rect class="cls-8" x="326.46" y="260.58" width="11.9" height="13.5" transform="translate(25.65 563.75) rotate(-82.83)"/><rect class="cls-8" x="260.8" y="309.7" width="32.8" height="36.1"/><rect x="267.7" y="312.5" width="22.4" height="24.7"/><rect class="cls-9" x="279.2" y="318.9" width="22" height="0.5"/><rect class="cls-8" x="270.4" y="297.7" width="33.4" height="36.7"/><rect class="cls-8" x="118.62" y="305.45" width="35.2" height="32.5" transform="translate(-3.92 1.69) rotate(-0.7)"/><rect x="127" y="312.22" width="24.1" height="22.3" transform="translate(-3.94 1.72) rotate(-0.7)"/><rect class="cls-9" x="144.5" y="323.49" width="0.5" height="21.8" transform="translate(-4.07 1.79) rotate(-0.7)"/><rect class="cls-8" x="129.77" y="314.8" width="35.9" height="33.1" transform="translate(-4.04 1.83) rotate(-0.7)"/></svg>